<?xml version="1.0" standalone="no"?>
<!DOCTYPE svg PUBLIC "-//W3C//DTD SVG 20010904//EN"
 "http://www.w3.org/TR/2001/REC-SVG-20010904/DTD/svg10.dtd">
<svg version="1.0" xmlns="http://www.w3.org/2000/svg"
 width="400.000000pt" height="400.000000pt" viewBox="0 0 400.000000 400.000000"
 preserveAspectRatio="xMidYMid meet">
<metadata>
Created by potrace 1.11, written by Peter Selinger 2001-2013
</metadata>
<g transform="translate(0.000000,400.000000) scale(0.100000,-0.100000)"
fill="#000000" stroke="none">
<path d="M0 2000 l0 -2000 2000 0 2000 0 0 2000 0 2000 -2000 0 -2000 0 0
-2000z m3120 481 c0 -789 -1 -809 -51 -962 -99 -303 -346 -597 -662 -788 -104
-62 -236 -124 -346 -161 l-60 -20 -93 34 c-464 167 -838 527 -972 932 -53 159
-55 190 -56 977 l0 727 1120 0 1120 0 0 -739z"/>
<path d="M940 2478 c0 -543 3 -703 14 -778 67 -444 469 -880 978 -1061 66 -23
66 -23 125 -5 76 24 240 102 328 156 285 174 519 449 618 727 56 154 57 175
57 939 l0 704 -1060 0 -1060 0 0 -682z m1720 448 c0 -2 -24 -18 -53 -34 -68
-38 -138 -116 -177 -195 -31 -65 -76 -224 -66 -235 11 -11 154 29 225 63 85
41 151 100 203 180 l38 60 0 -670 0 -670 -30 52 c-75 131 -226 224 -412 256
-34 5 -34 3 -8 -97 40 -153 106 -252 216 -326 l76 -50 -666 0 c-366 0 -666 2
-666 4 0 2 26 19 59 39 98 61 160 143 205 273 13 38 27 90 31 116 l7 47 -63
-15 c-186 -43 -294 -114 -378 -249 l-31 -50 0 668 c0 367 2 667 4 667 2 0 20
-27 40 -59 47 -76 112 -134 202 -177 71 -34 210 -72 221 -60 12 11 -28 153
-62 225 -41 84 -99 151 -179 203 l-59 38 661 0 c364 0 662 -2 662 -4z"/>
<path d="M1780 2386 l-75 -11 -3 -217 -2 -216 117 -4 c65 -3 126 -8 136 -12
16 -8 17 6 17 213 0 218 0 221 -22 235 -34 21 -84 25 -168 12z"/>
<path d="M2065 2378 c-11 -6 -23 -16 -27 -22 -4 -6 -8 -107 -8 -225 l0 -213
23 7 c12 4 73 9 135 12 l112 6 0 212 0 212 -57 12 c-71 14 -152 14 -178 -1z"/>
<path d="M1613 2345 c-17 -12 -22 -24 -20 -53 l2 -37 -52 -1 c-34 -1 -56 3
-64 12 -19 23 -50 16 -84 -19 l-31 -32 31 -33 c36 -36 50 -39 90 -18 15 8 34
13 43 11 9 -2 28 -4 42 -4 24 -1 25 -3 25 -76 l0 -75 -57 0 c-31 0 -60 5 -63
10 -12 20 -51 9 -78 -22 -24 -27 -26 -33 -13 -40 9 -5 16 -15 16 -23 0 -8 9
-19 20 -25 22 -12 60 -5 60 11 0 5 25 9 54 9 l55 0 3 -52 3 -53 165 -5 c105
-3 173 -10 187 -17 29 -17 76 -16 120 2 26 11 75 15 189 15 l154 0 0 55 0 55
69 0 c84 0 101 6 101 34 0 37 -19 46 -97 46 l-73 0 0 78 0 77 57 -3 c80 -5
115 10 111 46 -3 27 -4 27 -85 30 l-83 3 0 44 c0 25 -4 45 -9 45 -5 0 -16 3
-25 6 -14 5 -16 -19 -16 -230 l0 -236 -131 0 c-99 0 -143 -4 -180 -17 -43 -15
-52 -16 -81 -4 -21 9 -88 17 -178 20 l-145 6 -5 238 -5 237 -22 -15z m-145
-102 c2 -8 -6 -13 -22 -13 -25 0 -33 10 -19 24 10 10 36 3 41 -11z m0 -55 c-3
-7 -13 -13 -23 -13 -10 0 -20 6 -22 13 -3 7 5 12 22 12 17 0 25 -5 23 -12z m0
-185 c2 -8 -6 -13 -22 -13 -25 0 -33 10 -19 24 10 10 36 3 41 -11z m2 -48 c0
-9 -9 -15 -25 -15 -16 0 -25 6 -25 15 0 9 9 15 25 15 16 0 25 -6 25 -15z"/>
</g>
</svg>
